<svg xmlns="http://www.w3.org/2000/svg" xmlns:xlink="http://www.w3.org/1999/xlink" width="500" zoomAndPan="magnify" viewBox="0 0 375 374.999991" height="500" preserveAspectRatio="xMidYMid meet" version="1.0"><defs><g/><clipPath id="effd1d906e"><path d="M 100.679688 89.917969 L 274.679688 89.917969 L 274.679688 213.667969 L 100.679688 213.667969 Z M 100.679688 89.917969 " clip-rule="nonzero"/></clipPath><clipPath id="f9acab729d"><path d="M 254 204 L 256 204 L 256 213.65625 L 254 213.65625 Z M 254 204 " clip-rule="nonzero"/></clipPath><clipPath id="de8eed5a81"><path d="M 248 195 L 261.21875 195 L 261.21875 206 L 248 206 Z M 248 195 " clip-rule="nonzero"/></clipPath><clipPath id="8b8628ad3c"><path d="M 118 204 L 121 204 L 121 213.65625 L 118 213.65625 Z M 118 204 " clip-rule="nonzero"/></clipPath><clipPath id="750f088493"><path d="M 113.46875 194 L 126 194 L 126 206 L 113.46875 206 Z M 113.46875 194 " clip-rule="nonzero"/></clipPath><clipPath id="36be7b835e"><path d="M 206 120.65625 L 223 120.65625 L 223 130 L 206 130 Z M 206 120.65625 " clip-rule="nonzero"/></clipPath><clipPath id="1dfb4b069d"><path d="M 117 207 L 141 207 L 141 213.65625 L 117 213.65625 Z M 117 207 " clip-rule="nonzero"/></clipPath><clipPath id="b2fea1dc92"><path d="M 235 207 L 258 207 L 258 213.65625 L 235 213.65625 Z M 235 207 " clip-rule="nonzero"/></clipPath><clipPath id="f5b6e7fcd4"><path d="M 154.738281 101.167969 L 187.738281 101.167969 L 187.738281 134.917969 L 154.738281 134.917969 Z M 154.738281 101.167969 " clip-rule="nonzero"/></clipPath></defs><g clip-path="url(#effd1d906e)"><path fill="#d9ebe2" d="M 187.53125 89.917969 C 188.953125 89.917969 190.375 89.953125 191.792969 90.023438 C 193.210938 90.089844 194.628906 90.195312 196.042969 90.335938 C 197.457031 90.476562 198.867188 90.648438 200.273438 90.855469 C 201.679688 91.066406 203.078125 91.308594 204.472656 91.585938 C 205.867188 91.863281 207.253906 92.175781 208.632812 92.519531 C 210.011719 92.867188 211.378906 93.246094 212.742188 93.65625 C 214.101562 94.070312 215.449219 94.515625 216.789062 94.992188 C 218.125 95.472656 219.453125 95.984375 220.765625 96.527344 C 222.078125 97.070312 223.375 97.648438 224.660156 98.253906 C 225.945312 98.863281 227.214844 99.5 228.46875 100.171875 C 229.722656 100.839844 230.957031 101.542969 232.175781 102.273438 C 233.394531 103.003906 234.597656 103.761719 235.777344 104.554688 C 236.960938 105.34375 238.121094 106.160156 239.261719 107.007812 C 240.40625 107.855469 241.523438 108.726562 242.625 109.628906 C 243.722656 110.53125 244.796875 111.460938 245.851562 112.414062 C 246.902344 113.367188 247.933594 114.347656 248.9375 115.351562 C 249.941406 116.359375 250.921875 117.386719 251.875 118.441406 C 252.832031 119.492188 253.757812 120.570312 254.660156 121.667969 C 255.5625 122.765625 256.4375 123.886719 257.28125 125.027344 C 258.128906 126.167969 258.949219 127.332031 259.738281 128.511719 C 260.527344 129.695312 261.289062 130.894531 262.019531 132.113281 C 262.75 133.332031 263.449219 134.570312 264.117188 135.820312 C 264.789062 137.074219 265.425781 138.34375 266.035156 139.628906 C 266.644531 140.914062 267.21875 142.214844 267.761719 143.527344 C 268.304688 144.839844 268.816406 146.164062 269.296875 147.503906 C 269.773438 148.839844 270.222656 150.191406 270.632812 151.550781 C 271.046875 152.910156 271.425781 154.28125 271.769531 155.65625 C 272.117188 157.035156 272.425781 158.421875 272.703125 159.816406 C 272.980469 161.210938 273.222656 162.609375 273.433594 164.015625 C 273.640625 165.421875 273.816406 166.832031 273.953125 168.246094 C 274.09375 169.660156 274.199219 171.078125 274.269531 172.496094 C 274.339844 173.917969 274.371094 175.335938 274.371094 176.757812 L 274.371094 213.582031 L 100.691406 213.582031 L 100.691406 176.757812 C 100.691406 175.335938 100.726562 173.917969 100.796875 172.496094 C 100.863281 171.078125 100.96875 169.660156 101.109375 168.246094 C 101.246094 166.832031 101.421875 165.421875 101.628906 164.015625 C 101.839844 162.609375 102.082031 161.210938 102.359375 159.816406 C 102.636719 158.421875 102.949219 157.035156 103.292969 155.65625 C 103.636719 154.28125 104.015625 152.910156 104.429688 151.550781 C 104.84375 150.191406 105.289062 148.839844 105.765625 147.503906 C 106.246094 146.164062 106.757812 144.839844 107.300781 143.527344 C 107.84375 142.214844 108.421875 140.914062 109.027344 139.628906 C 109.636719 138.34375 110.273438 137.074219 110.945312 135.820312 C 111.613281 134.570312 112.316406 133.332031 113.046875 132.113281 C 113.777344 130.894531 114.535156 129.695312 115.324219 128.511719 C 116.117188 127.332031 116.933594 126.167969 117.78125 125.027344 C 118.625 123.886719 119.5 122.765625 120.402344 121.667969 C 121.304688 120.570312 122.230469 119.492188 123.1875 118.441406 C 124.140625 117.386719 125.121094 116.359375 126.125 115.351562 C 127.128906 114.347656 128.160156 113.367188 129.210938 112.414062 C 130.265625 111.460938 131.339844 110.53125 132.441406 109.628906 C 133.539062 108.726562 134.660156 107.855469 135.800781 107.007812 C 136.941406 106.160156 138.101562 105.34375 139.285156 104.554688 C 140.46875 103.761719 141.667969 103.003906 142.886719 102.273438 C 144.105469 101.542969 145.339844 100.839844 146.59375 100.171875 C 147.847656 99.5 149.117188 98.863281 150.402344 98.253906 C 151.6875 97.648438 152.984375 97.070312 154.300781 96.527344 C 155.613281 95.984375 156.9375 95.472656 158.277344 94.992188 C 159.613281 94.515625 160.964844 94.070312 162.324219 93.65625 C 163.683594 93.246094 165.050781 92.867188 166.429688 92.519531 C 167.808594 92.175781 169.195312 91.863281 170.589844 91.585938 C 171.984375 91.308594 173.382812 91.066406 174.789062 90.855469 C 176.195312 90.648438 177.605469 90.476562 179.019531 90.335938 C 180.433594 90.195312 181.851562 90.089844 183.269531 90.023438 C 184.691406 89.953125 186.109375 89.917969 187.53125 89.917969 Z M 187.53125 89.917969 " fill-opacity="1" fill-rule="nonzero"/></g><path fill="#101929" d="M 132.1875 210.359375 C 131.753906 210.359375 131.40625 210.007812 131.40625 209.578125 L 131.40625 197.453125 C 131.40625 197.023438 131.753906 196.671875 132.1875 196.671875 C 132.617188 196.671875 132.964844 197.023438 132.964844 197.453125 L 132.964844 209.578125 C 132.964844 210.007812 132.617188 210.359375 132.1875 210.359375 Z M 132.1875 210.359375 " fill-opacity="1" fill-rule="nonzero"/><path fill="#101929" d="M 132.1875 187.933594 L 126.507812 197.777344 L 137.863281 197.777344 Z M 132.1875 187.933594 " fill-opacity="1" fill-rule="nonzero"/><path fill="#101929" d="M 132.1875 182.140625 L 128.691406 188.191406 L 135.675781 188.191406 Z M 132.1875 182.140625 " fill-opacity="1" fill-rule="nonzero"/><g clip-path="url(#f9acab729d)"><path fill="#101929" d="M 255.082031 218.019531 C 254.652344 218.019531 254.300781 217.667969 254.300781 217.238281 L 254.300781 205.113281 C 254.300781 204.679688 254.652344 204.332031 255.082031 204.332031 C 255.511719 204.332031 255.863281 204.679688 255.863281 205.113281 L 255.863281 217.238281 C 255.863281 217.667969 255.511719 218.019531 255.082031 218.019531 Z M 255.082031 218.019531 " fill-opacity="1" fill-rule="nonzero"/></g><g clip-path="url(#de8eed5a81)"><path fill="#101929" d="M 261.210938 205.695312 L 248.949219 205.695312 L 255.078125 195.070312 Z M 251.65625 204.132812 L 258.511719 204.132812 L 255.085938 198.195312 Z M 251.65625 204.132812 " fill-opacity="1" fill-rule="nonzero"/></g><path fill="#101929" d="M 259.925781 196.632812 L 250.238281 196.632812 L 255.085938 188.238281 Z M 252.941406 195.070312 L 257.222656 195.070312 L 255.082031 191.363281 Z M 252.941406 195.070312 " fill-opacity="1" fill-rule="nonzero"/><g clip-path="url(#8b8628ad3c)"><path fill="#101929" d="M 119.597656 217.761719 C 119.167969 217.761719 118.820312 217.414062 118.820312 216.980469 L 118.820312 204.855469 C 118.820312 204.425781 119.167969 204.074219 119.597656 204.074219 C 120.03125 204.074219 120.378906 204.425781 120.378906 204.855469 L 120.378906 216.980469 C 120.378906 217.414062 120.035156 217.761719 119.597656 217.761719 Z M 119.597656 217.761719 " fill-opacity="1" fill-rule="nonzero"/></g><g clip-path="url(#750f088493)"><path fill="#101929" d="M 125.730469 205.441406 L 113.46875 205.441406 L 119.597656 194.8125 Z M 116.175781 203.878906 L 123.027344 203.878906 L 119.601562 197.9375 Z M 116.175781 203.878906 " fill-opacity="1" fill-rule="nonzero"/></g><path fill="#101929" d="M 124.445312 196.378906 L 114.757812 196.378906 L 119.601562 187.980469 Z M 117.460938 194.816406 L 121.742188 194.816406 L 119.601562 191.105469 Z M 117.460938 194.816406 " fill-opacity="1" fill-rule="nonzero"/><path fill="#101929" d="M 200.695312 138.730469 C 200.261719 138.730469 199.914062 138.378906 199.914062 137.949219 L 199.914062 136.492188 C 199.914062 134.371094 201.632812 132.648438 203.75 132.648438 L 223.363281 132.648438 C 224.617188 132.648438 225.636719 131.628906 225.636719 130.371094 L 225.636719 126.070312 C 225.636719 125.640625 225.988281 125.289062 226.417969 125.289062 C 226.847656 125.289062 227.199219 125.640625 227.199219 126.070312 L 227.199219 130.367188 C 227.199219 132.488281 225.480469 134.210938 223.363281 134.210938 L 203.75 134.210938 C 202.496094 134.210938 201.472656 135.230469 201.472656 136.488281 L 201.472656 137.945312 C 201.472656 138.378906 201.125 138.730469 200.695312 138.730469 Z M 200.695312 138.730469 " fill-opacity="1" fill-rule="nonzero"/><g clip-path="url(#36be7b835e)"><path fill="#101929" d="M 218.988281 129.023438 L 207.226562 129.023438 C 206.792969 129.023438 206.445312 128.675781 206.445312 128.242188 C 206.445312 127.8125 206.792969 127.460938 207.226562 127.460938 L 218.988281 127.460938 C 220.179688 127.460938 221.148438 126.492188 221.148438 125.300781 L 221.148438 121.480469 C 221.148438 121.050781 221.496094 120.699219 221.929688 120.699219 C 222.359375 120.699219 222.710938 121.050781 222.710938 121.480469 L 222.710938 125.300781 C 222.710938 127.355469 221.042969 129.023438 218.988281 129.023438 Z M 218.988281 129.023438 " fill-opacity="1" fill-rule="nonzero"/></g><path fill="#101929" d="M 197.863281 211.136719 L 141.808594 211.136719 C 140.898438 211.136719 140.074219 210.675781 139.597656 209.902344 C 139.125 209.128906 139.082031 208.183594 139.492188 207.371094 L 167.519531 151.78125 C 167.960938 150.902344 168.847656 150.355469 169.835938 150.355469 C 170.820312 150.355469 171.707031 150.902344 172.152344 151.78125 L 200.179688 207.367188 C 200.585938 208.179688 200.546875 209.125 200.070312 209.898438 C 199.59375 210.675781 198.769531 211.136719 197.863281 211.136719 Z M 169.835938 151.917969 C 169.433594 151.917969 169.09375 152.128906 168.910156 152.484375 L 140.882812 208.070312 C 140.71875 208.398438 140.734375 208.769531 140.929688 209.082031 C 141.121094 209.394531 141.441406 209.574219 141.808594 209.574219 L 197.863281 209.574219 C 198.226562 209.574219 198.546875 209.398438 198.742188 209.082031 C 198.933594 208.765625 198.949219 208.398438 198.785156 208.070312 L 170.757812 152.484375 C 170.578125 152.128906 170.230469 151.917969 169.835938 151.917969 Z M 168.214844 152.136719 L 168.21875 152.136719 Z M 168.214844 152.136719 " fill-opacity="1" fill-rule="nonzero"/><path fill="#101929" d="M 233.464844 211.136719 L 198.589844 211.136719 C 198.15625 211.136719 197.808594 210.789062 197.808594 210.355469 C 197.808594 209.925781 198.15625 209.574219 198.589844 209.574219 L 233.464844 209.574219 C 233.835938 209.574219 234.152344 209.398438 234.347656 209.082031 C 234.539062 208.765625 234.554688 208.398438 234.390625 208.070312 L 231.128906 201.601562 C 230.933594 201.214844 231.085938 200.742188 231.472656 200.550781 C 231.859375 200.355469 232.328125 200.507812 232.523438 200.898438 L 235.785156 207.367188 C 236.195312 208.179688 236.152344 209.125 235.679688 209.898438 C 235.199219 210.675781 234.371094 211.136719 233.464844 211.136719 Z M 233.464844 211.136719 " fill-opacity="1" fill-rule="nonzero"/><path fill="#101929" d="M 196.964844 201.976562 L 196.570312 201.976562 C 196.136719 201.976562 195.789062 201.625 195.789062 201.195312 C 195.789062 200.761719 196.136719 200.414062 196.570312 200.414062 L 196.964844 200.414062 C 197.597656 200.414062 198.164062 200.089844 198.492188 199.554688 C 198.820312 199.015625 198.839844 198.359375 198.546875 197.800781 L 171.09375 145.167969 C 170.84375 144.6875 170.375 144.402344 169.835938 144.402344 C 169.296875 144.402344 168.828125 144.6875 168.578125 145.167969 L 141.125 197.800781 C 140.835938 198.359375 140.851562 199.011719 141.179688 199.554688 C 141.507812 200.089844 142.078125 200.414062 142.707031 200.414062 C 143.140625 200.414062 143.488281 200.761719 143.488281 201.195312 C 143.488281 201.625 143.140625 201.976562 142.707031 201.976562 C 141.527344 201.976562 140.460938 201.371094 139.847656 200.363281 C 139.234375 199.351562 139.199219 198.125 139.746094 197.078125 L 167.199219 144.445312 C 167.714844 143.457031 168.726562 142.839844 169.839844 142.839844 C 170.957031 142.839844 171.96875 143.453125 172.484375 144.445312 L 199.929688 197.078125 C 200.476562 198.125 200.433594 199.351562 199.824219 200.363281 C 199.214844 201.371094 198.140625 201.976562 196.964844 201.976562 Z M 196.964844 201.976562 " fill-opacity="1" fill-rule="nonzero"/><path fill="#101929" d="M 231.964844 201.976562 L 196.960938 201.976562 C 196.53125 201.976562 196.179688 201.625 196.179688 201.195312 C 196.179688 200.761719 196.53125 200.414062 196.960938 200.414062 L 231.964844 200.414062 C 232.59375 200.414062 233.164062 200.089844 233.492188 199.554688 C 233.816406 199.015625 233.835938 198.359375 233.546875 197.800781 L 206.09375 145.167969 C 205.84375 144.6875 205.378906 144.402344 204.835938 144.402344 L 203.285156 144.402344 C 202.855469 144.402344 202.503906 144.054688 202.503906 143.621094 C 202.503906 143.191406 202.855469 142.839844 203.285156 142.839844 L 204.835938 142.839844 C 205.953125 142.839844 206.964844 143.453125 207.476562 144.445312 L 234.929688 197.078125 C 235.476562 198.125 235.4375 199.351562 234.828125 200.363281 C 234.214844 201.371094 233.144531 201.976562 231.964844 201.976562 Z M 231.964844 201.976562 " fill-opacity="1" fill-rule="nonzero"/><path fill="#101929" d="M 196.074219 144.402344 L 170.011719 144.402344 C 169.578125 144.402344 169.230469 144.054688 169.230469 143.621094 C 169.230469 143.191406 169.578125 142.839844 170.011719 142.839844 L 196.074219 142.839844 C 196.503906 142.839844 196.851562 143.191406 196.851562 143.621094 C 196.851562 144.054688 196.503906 144.402344 196.074219 144.402344 Z M 196.074219 144.402344 " fill-opacity="1" fill-rule="nonzero"/><path fill="#101929" d="M 177.933594 206.890625 L 161.734375 206.890625 L 161.734375 203.617188 C 161.734375 202.21875 162.871094 201.082031 164.269531 201.082031 L 175.40625 201.082031 C 176.800781 201.082031 177.9375 202.21875 177.9375 203.617188 L 177.9375 206.890625 Z M 163.296875 205.328125 L 176.375 205.328125 L 176.375 203.617188 C 176.375 203.082031 175.9375 202.644531 175.402344 202.644531 L 164.265625 202.644531 C 163.730469 202.644531 163.292969 203.078125 163.292969 203.617188 L 163.292969 205.328125 Z M 163.296875 205.328125 " fill-opacity="1" fill-rule="nonzero"/><path fill="#101929" d="M 181.539062 211.136719 L 158.125 211.136719 L 158.125 207.597656 C 158.125 206.347656 159.144531 205.328125 160.394531 205.328125 L 179.273438 205.328125 C 180.523438 205.328125 181.539062 206.34375 181.539062 207.597656 Z M 159.691406 209.574219 L 179.984375 209.574219 L 179.984375 207.597656 C 179.984375 207.210938 179.667969 206.890625 179.277344 206.890625 L 160.394531 206.890625 C 160.007812 206.890625 159.691406 207.207031 159.691406 207.597656 Z M 159.691406 209.574219 " fill-opacity="1" fill-rule="nonzero"/><path fill="#101929" d="M 171.234375 179.519531 L 169.886719 179.519531 C 170.152344 179.605469 170.347656 179.855469 170.347656 180.148438 L 170.347656 181.109375 C 170.847656 181.191406 171.316406 181.378906 171.726562 181.640625 C 171.96875 181.792969 172.191406 181.96875 172.390625 182.171875 C 172.644531 182.425781 172.859375 182.714844 173.039062 183.03125 L 173.039062 181.328125 C 173.039062 180.332031 172.226562 179.519531 171.234375 179.519531 Z M 175.296875 179.640625 C 174.617188 179.894531 174.128906 180.550781 174.128906 181.324219 L 174.128906 183.414062 C 174.128906 183.570312 174.066406 183.714844 173.949219 183.816406 C 173.835938 183.925781 173.683594 183.972656 173.527344 183.957031 C 173.480469 183.953125 173.433594 183.941406 173.386719 183.917969 C 173.464844 184.222656 173.511719 184.542969 173.511719 184.871094 L 173.511719 187.101562 L 165.871094 187.101562 L 165.871094 184.871094 C 165.871094 184.804688 165.875 184.742188 165.878906 184.675781 C 165.929688 183.648438 166.386719 182.726562 167.097656 182.066406 C 167.628906 181.578125 168.296875 181.234375 169.039062 181.109375 C 169.25 181.066406 169.472656 181.050781 169.695312 181.050781 C 169.917969 181.050781 170.136719 181.070312 170.351562 181.109375 C 170.851562 181.191406 171.316406 181.378906 171.730469 181.640625 C 171.972656 181.792969 172.195312 181.96875 172.394531 182.171875 C 172.648438 182.425781 172.863281 182.714844 173.042969 183.03125 L 173.042969 181.328125 C 173.042969 180.332031 172.230469 179.523438 171.238281 179.523438 L 167.589844 179.523438 C 166.597656 179.523438 165.789062 180.332031 165.789062 181.328125 L 165.789062 182.941406 C 165.789062 183.097656 165.722656 183.238281 165.609375 183.34375 C 165.492188 183.449219 165.34375 183.5 165.1875 183.480469 C 164.914062 183.457031 164.695312 183.191406 164.695312 182.882812 L 164.695312 181.324219 C 164.695312 180.734375 164.410156 180.210938 163.972656 179.882812 C 163.855469 180.15625 163.792969 180.453125 163.792969 180.765625 L 163.792969 201.195312 L 175.597656 201.195312 L 175.597656 180.765625 C 175.597656 180.355469 175.484375 179.972656 175.296875 179.640625 Z M 173.335938 198.128906 L 166.050781 198.128906 C 165.6875 198.128906 165.394531 197.835938 165.394531 197.472656 C 165.394531 197.109375 165.6875 196.816406 166.050781 196.816406 L 173.335938 196.816406 C 173.699219 196.816406 173.992188 197.109375 173.992188 197.472656 C 173.992188 197.835938 173.695312 198.128906 173.335938 198.128906 Z M 173.335938 198.128906 " fill-opacity="1" fill-rule="nonzero"/><path fill="#101929" d="M 170.347656 180.230469 L 170.347656 188.171875 C 170.347656 188.53125 170.054688 188.820312 169.691406 188.820312 C 169.328125 188.820312 169.035156 188.53125 169.035156 188.171875 L 169.035156 180.230469 C 169.035156 179.941406 169.230469 179.691406 169.496094 179.609375 C 169.558594 179.589844 169.621094 179.582031 169.691406 179.582031 C 169.761719 179.582031 169.824219 179.589844 169.886719 179.609375 C 170.152344 179.691406 170.347656 179.9375 170.347656 180.230469 Z M 170.347656 180.230469 " fill-opacity="1" fill-rule="nonzero"/><path fill="#101929" d="M 169.515625 171.53125 C 167.507812 171.53125 165.871094 169.894531 165.871094 167.886719 C 165.871094 165.875 167.507812 164.238281 169.515625 164.238281 C 171.527344 164.238281 173.160156 165.875 173.160156 167.886719 C 173.160156 169.894531 171.523438 171.53125 169.515625 171.53125 Z M 169.515625 165.800781 C 168.367188 165.800781 167.433594 166.734375 167.433594 167.886719 C 167.433594 169.035156 168.367188 169.96875 169.515625 169.96875 C 170.664062 169.96875 171.597656 169.035156 171.597656 167.886719 C 171.597656 166.734375 170.664062 165.800781 169.515625 165.800781 Z M 169.515625 165.800781 " fill-opacity="1" fill-rule="nonzero"/><path fill="#101929" d="M 176.78125 176.832031 L 162.886719 176.832031 C 161.78125 176.832031 160.886719 177.730469 160.886719 178.832031 C 160.886719 179.941406 161.78125 180.835938 162.886719 180.835938 C 163.160156 180.835938 163.378906 181.058594 163.378906 181.328125 L 163.378906 182.886719 C 163.378906 183.332031 163.53125 183.75 163.789062 184.074219 C 164.089844 184.46875 164.542969 184.738281 165.058594 184.785156 C 165.339844 184.8125 165.621094 184.777344 165.878906 184.679688 C 166.101562 184.597656 166.308594 184.472656 166.488281 184.3125 C 166.871094 183.957031 167.097656 183.457031 167.097656 182.9375 L 167.097656 181.324219 C 167.097656 181.054688 167.320312 180.832031 167.585938 180.832031 L 171.234375 180.832031 C 171.503906 180.832031 171.726562 181.054688 171.726562 181.324219 L 171.726562 183.363281 C 171.726562 184.339844 172.460938 185.175781 173.402344 185.265625 C 173.441406 185.269531 173.476562 185.269531 173.511719 185.269531 C 173.535156 185.273438 173.558594 185.273438 173.582031 185.273438 C 174.042969 185.273438 174.492188 185.101562 174.835938 184.789062 C 175.222656 184.4375 175.441406 183.9375 175.441406 183.414062 L 175.441406 181.324219 C 175.441406 181.1875 175.503906 181.054688 175.597656 180.972656 C 175.6875 180.886719 175.804688 180.832031 175.9375 180.832031 L 176.785156 180.832031 C 177.886719 180.832031 178.785156 179.9375 178.785156 178.832031 C 178.785156 177.730469 177.882812 176.832031 176.78125 176.832031 Z M 176.78125 179.519531 L 175.933594 179.519531 C 175.707031 179.519531 175.496094 179.5625 175.296875 179.640625 C 174.617188 179.894531 174.128906 180.550781 174.128906 181.324219 L 174.128906 183.414062 C 174.128906 183.570312 174.066406 183.714844 173.949219 183.816406 C 173.835938 183.925781 173.683594 183.972656 173.527344 183.957031 C 173.480469 183.953125 173.433594 183.941406 173.386719 183.917969 C 173.183594 183.832031 173.035156 183.613281 173.035156 183.359375 L 173.035156 181.320312 C 173.035156 180.328125 172.222656 179.519531 171.230469 179.519531 L 167.582031 179.519531 C 166.589844 179.519531 165.78125 180.328125 165.78125 181.320312 L 165.78125 182.933594 C 165.78125 183.089844 165.714844 183.234375 165.601562 183.335938 C 165.484375 183.441406 165.335938 183.492188 165.179688 183.472656 C 164.90625 183.449219 164.691406 183.183594 164.691406 182.878906 L 164.691406 181.316406 C 164.691406 180.726562 164.40625 180.207031 163.96875 179.878906 C 163.664062 179.648438 163.292969 179.515625 162.886719 179.515625 C 162.507812 179.515625 162.199219 179.207031 162.199219 178.824219 C 162.199219 178.441406 162.507812 178.132812 162.886719 178.132812 L 176.78125 178.132812 C 177.164062 178.132812 177.472656 178.441406 177.472656 178.824219 C 177.472656 179.210938 177.164062 179.519531 176.78125 179.519531 Z M 176.78125 179.519531 " fill-opacity="1" fill-rule="nonzero"/><path fill="#101929" d="M 173.367188 156.707031 L 166.652344 156.707031 C 166.222656 156.707031 165.871094 156.359375 165.871094 155.925781 C 165.871094 155.496094 166.222656 155.144531 166.652344 155.144531 L 173.367188 155.144531 C 173.796875 155.144531 174.148438 155.496094 174.148438 155.925781 C 174.148438 156.359375 173.796875 156.707031 173.367188 156.707031 Z M 173.367188 156.707031 " fill-opacity="1" fill-rule="nonzero"/><path fill="#101929" d="M 175.597656 161.253906 L 164.011719 161.253906 C 163.582031 161.253906 163.230469 160.90625 163.230469 160.472656 C 163.230469 160.042969 163.582031 159.691406 164.011719 159.691406 L 175.597656 159.691406 C 176.027344 159.691406 176.375 160.042969 176.375 160.472656 C 176.375 160.90625 176.027344 161.253906 175.597656 161.253906 Z M 175.597656 161.253906 " fill-opacity="1" fill-rule="nonzero"/><path fill="#101929" d="M 177.96875 165.800781 L 161.90625 165.800781 C 161.476562 165.800781 161.125 165.453125 161.125 165.019531 C 161.125 164.589844 161.476562 164.238281 161.90625 164.238281 L 177.96875 164.238281 C 178.398438 164.238281 178.75 164.589844 178.75 165.019531 C 178.75 165.453125 178.398438 165.800781 177.96875 165.800781 Z M 177.96875 165.800781 " fill-opacity="1" fill-rule="nonzero"/><path fill="#101929" d="M 180.160156 170.347656 L 171.835938 170.347656 C 171.40625 170.347656 171.054688 170 171.054688 169.566406 C 171.054688 169.136719 171.40625 168.785156 171.835938 168.785156 L 180.160156 168.785156 C 180.589844 168.785156 180.941406 169.136719 180.941406 169.566406 C 180.941406 170 180.589844 170.347656 180.160156 170.347656 Z M 180.160156 170.347656 " fill-opacity="1" fill-rule="nonzero"/><path fill="#101929" d="M 167.039062 170.347656 L 159.425781 170.347656 C 158.996094 170.347656 158.644531 170 158.644531 169.566406 C 158.644531 169.136719 158.996094 168.785156 159.425781 168.785156 L 167.039062 168.785156 C 167.472656 168.785156 167.820312 169.136719 167.820312 169.566406 C 167.820312 170 167.472656 170.347656 167.039062 170.347656 Z M 167.039062 170.347656 " fill-opacity="1" fill-rule="nonzero"/><path fill="#101929" d="M 182.535156 174.894531 L 157.269531 174.894531 C 156.835938 174.894531 156.488281 174.546875 156.488281 174.113281 C 156.488281 173.683594 156.835938 173.332031 157.269531 173.332031 L 182.535156 173.332031 C 182.96875 173.332031 183.316406 173.683594 183.316406 174.113281 C 183.316406 174.546875 182.96875 174.894531 182.535156 174.894531 Z M 182.535156 174.894531 " fill-opacity="1" fill-rule="nonzero"/><path fill="#101929" d="M 184.574219 179.445312 L 178.25 179.445312 C 177.820312 179.445312 177.46875 179.097656 177.46875 178.664062 C 177.46875 178.234375 177.820312 177.882812 178.25 177.882812 L 184.574219 177.882812 C 185.007812 177.882812 185.355469 178.234375 185.355469 178.664062 C 185.355469 179.097656 185.007812 179.445312 184.574219 179.445312 Z M 184.574219 179.445312 " fill-opacity="1" fill-rule="nonzero"/><path fill="#101929" d="M 161.488281 179.445312 L 155.054688 179.445312 C 154.621094 179.445312 154.273438 179.097656 154.273438 178.664062 C 154.273438 178.234375 154.621094 177.882812 155.054688 177.882812 L 161.488281 177.882812 C 161.921875 177.882812 162.269531 178.234375 162.269531 178.664062 C 162.269531 179.097656 161.921875 179.445312 161.488281 179.445312 Z M 161.488281 179.445312 " fill-opacity="1" fill-rule="nonzero"/><path fill="#101929" d="M 186.894531 183.992188 L 175.441406 183.992188 C 175.007812 183.992188 174.660156 183.644531 174.660156 183.210938 C 174.660156 182.78125 175.007812 182.429688 175.441406 182.429688 L 186.894531 182.429688 C 187.324219 182.429688 187.671875 182.78125 187.671875 183.210938 C 187.671875 183.644531 187.324219 183.992188 186.894531 183.992188 Z M 186.894531 183.992188 " fill-opacity="1" fill-rule="nonzero"/><path fill="#101929" d="M 164.082031 183.992188 L 152.722656 183.992188 C 152.289062 183.992188 151.941406 183.644531 151.941406 183.210938 C 151.941406 182.78125 152.289062 182.429688 152.722656 182.429688 L 164.082031 182.429688 C 164.511719 182.429688 164.859375 182.78125 164.859375 183.210938 C 164.859375 183.644531 164.511719 183.992188 164.082031 183.992188 Z M 164.082031 183.992188 " fill-opacity="1" fill-rule="nonzero"/><path fill="#101929" d="M 189.414062 188.539062 L 175.136719 188.539062 C 174.707031 188.539062 174.355469 188.191406 174.355469 187.757812 C 174.355469 187.328125 174.707031 186.976562 175.136719 186.976562 L 189.414062 186.976562 C 189.847656 186.976562 190.195312 187.328125 190.195312 187.757812 C 190.195312 188.191406 189.847656 188.539062 189.414062 188.539062 Z M 189.414062 188.539062 " fill-opacity="1" fill-rule="nonzero"/><path fill="#101929" d="M 164.082031 188.539062 L 150.484375 188.539062 C 150.054688 188.539062 149.707031 188.191406 149.707031 187.757812 C 149.707031 187.328125 150.054688 186.976562 150.484375 186.976562 L 164.082031 186.976562 C 164.511719 186.976562 164.859375 187.328125 164.859375 187.757812 C 164.859375 188.191406 164.511719 188.539062 164.082031 188.539062 Z M 164.082031 188.539062 " fill-opacity="1" fill-rule="nonzero"/><path fill="#101929" d="M 191.710938 193.085938 L 175.140625 193.085938 C 174.710938 193.085938 174.359375 192.738281 174.359375 192.304688 C 174.359375 191.875 174.710938 191.523438 175.140625 191.523438 L 191.710938 191.523438 C 192.140625 191.523438 192.492188 191.875 192.492188 192.304688 C 192.492188 192.738281 192.140625 193.085938 191.710938 193.085938 Z M 191.710938 193.085938 " fill-opacity="1" fill-rule="nonzero"/><path fill="#101929" d="M 164.675781 193.085938 L 147.964844 193.085938 C 147.53125 193.085938 147.183594 192.738281 147.183594 192.304688 C 147.183594 191.875 147.53125 191.523438 147.964844 191.523438 L 164.675781 191.523438 C 165.105469 191.523438 165.453125 191.875 165.453125 192.304688 C 165.453125 192.738281 165.105469 193.085938 164.675781 193.085938 Z M 164.675781 193.085938 " fill-opacity="1" fill-rule="nonzero"/><path fill="#101929" d="M 194.003906 197.632812 L 175.441406 197.632812 C 175.007812 197.632812 174.660156 197.285156 174.660156 196.851562 C 174.660156 196.421875 175.007812 196.070312 175.441406 196.070312 L 194.003906 196.070312 C 194.433594 196.070312 194.78125 196.421875 194.78125 196.851562 C 194.78125 197.285156 194.433594 197.632812 194.003906 197.632812 Z M 194.003906 197.632812 " fill-opacity="1" fill-rule="nonzero"/><path fill="#101929" d="M 164.082031 197.632812 L 145.855469 197.632812 C 145.425781 197.632812 145.074219 197.285156 145.074219 196.851562 C 145.074219 196.421875 145.425781 196.070312 145.855469 196.070312 L 164.082031 196.070312 C 164.511719 196.070312 164.859375 196.421875 164.859375 196.851562 C 164.859375 197.285156 164.511719 197.632812 164.082031 197.632812 Z M 164.082031 197.632812 " fill-opacity="1" fill-rule="nonzero"/><path fill="#101929" d="M 196.292969 202.179688 L 175.441406 202.179688 C 175.007812 202.179688 174.660156 201.832031 174.660156 201.398438 C 174.660156 200.96875 175.007812 200.617188 175.441406 200.617188 L 196.292969 200.617188 C 196.726562 200.617188 197.074219 200.96875 197.074219 201.398438 C 197.074219 201.832031 196.726562 202.179688 196.292969 202.179688 Z M 196.292969 202.179688 " fill-opacity="1" fill-rule="nonzero"/><path fill="#101929" d="M 164.082031 202.179688 L 143.375 202.179688 C 142.945312 202.179688 142.59375 201.832031 142.59375 201.398438 C 142.59375 200.96875 142.945312 200.617188 143.375 200.617188 L 164.082031 200.617188 C 164.511719 200.617188 164.859375 200.96875 164.859375 201.398438 C 164.859375 201.832031 164.511719 202.179688 164.082031 202.179688 Z M 164.082031 202.179688 " fill-opacity="1" fill-rule="nonzero"/><path fill="#101929" d="M 198.589844 206.730469 L 178.25 206.730469 C 177.820312 206.730469 177.46875 206.382812 177.46875 205.949219 C 177.46875 205.519531 177.820312 205.167969 178.25 205.167969 L 198.589844 205.167969 C 199.019531 205.167969 199.371094 205.519531 199.371094 205.949219 C 199.371094 206.382812 199.019531 206.730469 198.589844 206.730469 Z M 198.589844 206.730469 " fill-opacity="1" fill-rule="nonzero"/><path fill="#101929" d="M 162.515625 206.730469 L 141.3125 206.730469 C 140.882812 206.730469 140.53125 206.382812 140.53125 205.949219 C 140.53125 205.519531 140.882812 205.167969 141.3125 205.167969 L 162.515625 205.167969 C 162.945312 205.167969 163.296875 205.519531 163.296875 205.949219 C 163.296875 206.382812 162.945312 206.730469 162.515625 206.730469 Z M 162.515625 206.730469 " fill-opacity="1" fill-rule="nonzero"/><path fill="#101929" d="M 203.285156 150.726562 C 202.855469 150.726562 202.503906 150.375 202.503906 149.945312 L 202.503906 139.824219 C 202.503906 139.21875 202.015625 138.730469 201.410156 138.730469 L 197.945312 138.730469 C 197.34375 138.730469 196.851562 139.21875 196.851562 139.824219 L 196.851562 149.945312 C 196.851562 150.375 196.503906 150.726562 196.074219 150.726562 C 195.640625 150.726562 195.292969 150.375 195.292969 149.945312 L 195.292969 139.824219 C 195.292969 138.355469 196.480469 137.167969 197.945312 137.167969 L 201.410156 137.167969 C 202.875 137.167969 204.066406 138.355469 204.066406 139.824219 L 204.066406 149.945312 C 204.066406 150.375 203.714844 150.726562 203.285156 150.726562 Z M 203.285156 150.726562 " fill-opacity="1" fill-rule="nonzero"/><path fill="#101929" d="M 199.804688 151.605469 C 196.238281 151.605469 193.417969 150.527344 193.242188 150.460938 C 192.839844 150.304688 192.644531 149.851562 192.800781 149.449219 C 192.957031 149.046875 193.410156 148.847656 193.8125 149.003906 C 193.878906 149.027344 199.851562 151.292969 205.0625 149.015625 C 205.453125 148.84375 205.917969 149.027344 206.089844 149.417969 C 206.261719 149.816406 206.078125 150.277344 205.6875 150.449219 C 203.695312 151.3125 201.648438 151.605469 199.804688 151.605469 Z M 199.804688 151.605469 " fill-opacity="1" fill-rule="nonzero"/><path fill="#101929" d="M 191.289062 159.640625 C 190.421875 159.640625 189.949219 159.195312 189.636719 158.902344 C 189.378906 158.65625 189.292969 158.589844 189.054688 158.589844 C 188.8125 158.589844 188.730469 158.65625 188.46875 158.902344 C 188.15625 159.195312 187.6875 159.640625 186.816406 159.640625 C 185.949219 159.640625 185.476562 159.195312 185.164062 158.902344 C 184.90625 158.65625 184.824219 158.589844 184.582031 158.589844 C 184.152344 158.589844 183.800781 158.238281 183.800781 157.808594 C 183.800781 157.375 184.152344 157.027344 184.582031 157.027344 C 185.449219 157.027344 185.921875 157.46875 186.234375 157.765625 C 186.492188 158.007812 186.578125 158.078125 186.816406 158.078125 C 187.058594 158.078125 187.140625 158.007812 187.402344 157.765625 C 187.714844 157.46875 188.183594 157.027344 189.054688 157.027344 C 189.921875 157.027344 190.394531 157.46875 190.703125 157.765625 C 190.964844 158.007812 191.046875 158.078125 191.289062 158.078125 C 191.527344 158.078125 191.613281 158.007812 191.871094 157.765625 C 192.183594 157.46875 192.65625 157.027344 193.523438 157.027344 C 193.957031 157.027344 194.304688 157.375 194.304688 157.808594 C 194.304688 158.238281 193.957031 158.589844 193.523438 158.589844 C 193.285156 158.589844 193.199219 158.65625 192.941406 158.902344 C 192.628906 159.195312 192.15625 159.640625 191.289062 159.640625 Z M 191.289062 159.640625 " fill-opacity="1" fill-rule="nonzero"/><path fill="#101929" d="M 183.652344 150.1875 C 182.785156 150.1875 182.3125 149.746094 182 149.449219 C 181.742188 149.207031 181.65625 149.136719 181.414062 149.136719 C 181.175781 149.136719 181.089844 149.207031 180.832031 149.449219 C 180.519531 149.746094 180.046875 150.1875 179.179688 150.1875 C 178.3125 150.1875 177.839844 149.746094 177.527344 149.449219 C 177.269531 149.207031 177.183594 149.136719 176.945312 149.136719 C 176.515625 149.136719 176.164062 148.789062 176.164062 148.355469 C 176.164062 147.925781 176.515625 147.574219 176.945312 147.574219 C 177.8125 147.574219 178.285156 148.019531 178.597656 148.3125 C 178.855469 148.558594 178.941406 148.625 179.179688 148.625 C 179.421875 148.625 179.503906 148.558594 179.765625 148.3125 C 180.078125 148.019531 180.546875 147.574219 181.414062 147.574219 C 182.285156 147.574219 182.753906 148.019531 183.066406 148.3125 C 183.328125 148.558594 183.410156 148.625 183.652344 148.625 C 183.890625 148.625 183.976562 148.558594 184.234375 148.3125 C 184.546875 148.019531 185.019531 147.574219 185.886719 147.574219 C 186.316406 147.574219 186.667969 147.925781 186.667969 148.355469 C 186.667969 148.789062 186.316406 149.136719 185.886719 149.136719 C 185.648438 149.136719 185.5625 149.207031 185.304688 149.449219 C 184.992188 149.746094 184.519531 150.1875 183.652344 150.1875 Z M 183.652344 150.1875 " fill-opacity="1" fill-rule="nonzero"/><path fill="#101929" d="M 208.363281 164.734375 C 207.496094 164.734375 207.027344 164.289062 206.714844 163.996094 C 206.453125 163.75 206.371094 163.683594 206.128906 163.683594 C 205.890625 163.683594 205.804688 163.75 205.546875 163.996094 C 205.234375 164.289062 204.761719 164.734375 203.894531 164.734375 C 203.027344 164.734375 202.554688 164.289062 202.242188 163.996094 C 201.984375 163.75 201.898438 163.683594 201.660156 163.683594 C 201.226562 163.683594 200.878906 163.332031 200.878906 162.902344 C 200.878906 162.46875 201.226562 162.121094 201.660156 162.121094 C 202.527344 162.121094 202.996094 162.5625 203.308594 162.859375 C 203.570312 163.101562 203.652344 163.171875 203.894531 163.171875 C 204.132812 163.171875 204.21875 163.101562 204.476562 162.859375 C 204.789062 162.5625 205.261719 162.121094 206.128906 162.121094 C 206.996094 162.121094 207.46875 162.5625 207.78125 162.859375 C 208.039062 163.101562 208.125 163.171875 208.363281 163.171875 C 208.605469 163.171875 208.691406 163.101562 208.949219 162.859375 C 209.261719 162.5625 209.734375 162.121094 210.601562 162.121094 C 211.03125 162.121094 211.382812 162.46875 211.382812 162.902344 C 211.382812 163.332031 211.03125 163.683594 210.601562 163.683594 C 210.359375 163.683594 210.277344 163.75 210.015625 163.996094 C 209.703125 164.292969 209.234375 164.734375 208.363281 164.734375 Z M 208.363281 164.734375 " fill-opacity="1" fill-rule="nonzero"/><path fill="#101929" d="M 196.238281 174.714844 C 195.371094 174.714844 194.898438 174.269531 194.585938 173.976562 C 194.328125 173.734375 194.242188 173.664062 194.003906 173.664062 C 193.761719 173.664062 193.675781 173.734375 193.417969 173.976562 C 193.105469 174.269531 192.632812 174.714844 191.765625 174.714844 C 190.898438 174.714844 190.425781 174.269531 190.113281 173.976562 C 189.855469 173.734375 189.769531 173.664062 189.53125 173.664062 C 189.101562 173.664062 188.75 173.3125 188.75 172.882812 C 188.75 172.453125 189.101562 172.101562 189.53125 172.101562 C 190.398438 172.101562 190.871094 172.546875 191.183594 172.839844 C 191.441406 173.082031 191.527344 173.152344 191.765625 173.152344 C 192.007812 173.152344 192.089844 173.082031 192.351562 172.839844 C 192.664062 172.546875 193.132812 172.101562 194.003906 172.101562 C 194.871094 172.101562 195.339844 172.546875 195.652344 172.839844 C 195.914062 173.082031 195.996094 173.152344 196.238281 173.152344 C 196.476562 173.152344 196.5625 173.082031 196.820312 172.839844 C 197.132812 172.546875 197.605469 172.101562 198.472656 172.101562 C 198.90625 172.101562 199.253906 172.453125 199.253906 172.882812 C 199.253906 173.3125 198.90625 173.664062 198.472656 173.664062 C 198.234375 173.664062 198.148438 173.734375 197.890625 173.976562 C 197.578125 174.269531 197.105469 174.714844 196.238281 174.714844 Z M 196.238281 174.714844 " fill-opacity="1" fill-rule="nonzero"/><path fill="#101929" d="M 215.792969 174.714844 C 214.925781 174.714844 214.453125 174.269531 214.140625 173.976562 C 213.882812 173.734375 213.796875 173.664062 213.558594 173.664062 C 213.316406 173.664062 213.234375 173.734375 212.972656 173.976562 C 212.660156 174.269531 212.191406 174.714844 211.320312 174.714844 C 210.453125 174.714844 209.984375 174.269531 209.671875 173.976562 C 209.410156 173.734375 209.328125 173.664062 209.085938 173.664062 C 208.65625 173.664062 208.304688 173.3125 208.304688 172.882812 C 208.304688 172.453125 208.65625 172.101562 209.085938 172.101562 C 209.953125 172.101562 210.425781 172.546875 210.738281 172.839844 C 210.996094 173.082031 211.082031 173.152344 211.320312 173.152344 C 211.5625 173.152344 211.648438 173.082031 211.90625 172.839844 C 212.21875 172.546875 212.691406 172.101562 213.558594 172.101562 C 214.425781 172.101562 214.898438 172.546875 215.210938 172.839844 C 215.46875 173.082031 215.550781 173.152344 215.792969 173.152344 C 216.035156 173.152344 216.117188 173.082031 216.378906 172.839844 C 216.6875 172.546875 217.160156 172.101562 218.027344 172.101562 C 218.460938 172.101562 218.808594 172.453125 218.808594 172.882812 C 218.808594 173.3125 218.460938 173.664062 218.027344 173.664062 C 217.789062 173.664062 217.703125 173.734375 217.445312 173.976562 C 217.132812 174.269531 216.660156 174.714844 215.792969 174.714844 Z M 215.792969 174.714844 " fill-opacity="1" fill-rule="nonzero"/><path fill="#101929" d="M 211.320312 185.96875 C 210.449219 185.96875 209.980469 185.523438 209.667969 185.230469 C 209.40625 184.988281 209.324219 184.917969 209.082031 184.917969 C 208.84375 184.917969 208.757812 184.988281 208.5 185.230469 C 208.1875 185.523438 207.714844 185.96875 206.847656 185.96875 C 205.980469 185.96875 205.507812 185.523438 205.195312 185.230469 C 204.9375 184.988281 204.851562 184.917969 204.613281 184.917969 C 204.179688 184.917969 203.832031 184.566406 203.832031 184.136719 C 203.832031 183.707031 204.179688 183.355469 204.613281 183.355469 C 205.480469 183.355469 205.953125 183.800781 206.265625 184.09375 C 206.523438 184.335938 206.605469 184.40625 206.847656 184.40625 C 207.089844 184.40625 207.171875 184.335938 207.429688 184.09375 C 207.742188 183.800781 208.214844 183.355469 209.082031 183.355469 C 209.953125 183.355469 210.421875 183.800781 210.734375 184.09375 C 210.992188 184.335938 211.078125 184.40625 211.320312 184.40625 C 211.558594 184.40625 211.644531 184.335938 211.902344 184.09375 C 212.214844 183.800781 212.6875 183.355469 213.554688 183.355469 C 213.984375 183.355469 214.335938 183.707031 214.335938 184.136719 C 214.335938 184.566406 213.984375 184.917969 213.554688 184.917969 C 213.3125 184.917969 213.230469 184.988281 212.96875 185.230469 C 212.660156 185.523438 212.1875 185.96875 211.320312 185.96875 Z M 211.320312 185.96875 " fill-opacity="1" fill-rule="nonzero"/><path fill="#101929" d="M 227.761719 194.78125 C 226.894531 194.78125 226.421875 194.335938 226.109375 194.042969 C 225.851562 193.800781 225.765625 193.730469 225.527344 193.730469 C 225.285156 193.730469 225.199219 193.800781 224.941406 194.042969 C 224.628906 194.335938 224.15625 194.78125 223.289062 194.78125 C 222.421875 194.78125 221.949219 194.335938 221.636719 194.042969 C 221.378906 193.800781 221.292969 193.730469 221.054688 193.730469 C 220.625 193.730469 220.273438 193.378906 220.273438 192.949219 C 220.273438 192.519531 220.625 192.167969 221.054688 192.167969 C 221.921875 192.167969 222.394531 192.613281 222.707031 192.90625 C 222.964844 193.148438 223.050781 193.21875 223.289062 193.21875 C 223.53125 193.21875 223.613281 193.148438 223.875 192.90625 C 224.1875 192.613281 224.65625 192.167969 225.527344 192.167969 C 226.394531 192.167969 226.863281 192.613281 227.175781 192.90625 C 227.4375 193.148438 227.519531 193.21875 227.761719 193.21875 C 228 193.21875 228.085938 193.148438 228.34375 192.90625 C 228.65625 192.613281 229.128906 192.167969 229.996094 192.167969 C 230.425781 192.167969 230.777344 192.519531 230.777344 192.949219 C 230.777344 193.378906 230.425781 193.730469 229.996094 193.730469 C 229.757812 193.730469 229.671875 193.800781 229.414062 194.042969 C 229.101562 194.335938 228.628906 194.78125 227.761719 194.78125 Z M 227.761719 194.78125 " fill-opacity="1" fill-rule="nonzero"/><path fill="#101929" d="M 207.605469 194.78125 C 206.738281 194.78125 206.265625 194.335938 205.953125 194.042969 C 205.695312 193.800781 205.609375 193.730469 205.371094 193.730469 C 205.128906 193.730469 205.046875 193.800781 204.785156 194.042969 C 204.472656 194.335938 204.003906 194.78125 203.136719 194.78125 C 202.265625 194.78125 201.796875 194.335938 201.484375 194.042969 C 201.222656 193.800781 201.140625 193.730469 200.898438 193.730469 C 200.46875 193.730469 200.117188 193.378906 200.117188 192.949219 C 200.117188 192.519531 200.46875 192.167969 200.898438 192.167969 C 201.765625 192.167969 202.238281 192.613281 202.550781 192.90625 C 202.808594 193.148438 202.894531 193.21875 203.136719 193.21875 C 203.375 193.21875 203.460938 193.148438 203.71875 192.90625 C 204.03125 192.613281 204.503906 192.167969 205.371094 192.167969 C 206.238281 192.167969 206.710938 192.613281 207.023438 192.90625 C 207.28125 193.148438 207.367188 193.21875 207.605469 193.21875 C 207.847656 193.21875 207.929688 193.148438 208.191406 192.90625 C 208.503906 192.613281 208.972656 192.167969 209.84375 192.167969 C 210.273438 192.167969 210.621094 192.519531 210.621094 192.949219 C 210.621094 193.378906 210.273438 193.730469 209.84375 193.730469 C 209.601562 193.730469 209.515625 193.800781 209.257812 194.042969 C 208.949219 194.335938 208.472656 194.78125 207.605469 194.78125 Z M 207.605469 194.78125 " fill-opacity="1" fill-rule="nonzero"/><g clip-path="url(#1dfb4b069d)"><path fill="#101929" d="M 118.730469 218.511719 C 118.484375 218.511719 118.242188 218.394531 118.089844 218.175781 C 117.839844 217.824219 117.929688 217.335938 118.285156 217.089844 L 124.871094 212.507812 C 129.136719 209.539062 134.132812 207.972656 139.328125 207.972656 L 139.6875 207.972656 C 140.121094 207.972656 140.46875 208.320312 140.46875 208.753906 C 140.46875 209.183594 140.121094 209.535156 139.6875 209.535156 L 139.328125 209.535156 C 134.457031 209.535156 129.761719 211.007812 125.761719 213.792969 L 119.175781 218.371094 C 119.039062 218.464844 118.882812 218.511719 118.730469 218.511719 Z M 118.730469 218.511719 " fill-opacity="1" fill-rule="nonzero"/></g><g clip-path="url(#b2fea1dc92)"><path fill="#101929" d="M 256.800781 218.511719 C 256.644531 218.511719 256.488281 218.464844 256.355469 218.371094 L 249.769531 213.789062 C 245.769531 211.003906 241.074219 209.53125 236.199219 209.53125 L 235.84375 209.53125 C 235.410156 209.53125 235.0625 209.179688 235.0625 208.75 C 235.0625 208.320312 235.410156 207.96875 235.84375 207.96875 L 236.199219 207.96875 C 241.398438 207.96875 246.394531 209.539062 250.660156 212.503906 L 257.246094 217.085938 C 257.597656 217.332031 257.6875 217.820312 257.441406 218.171875 C 257.289062 218.394531 257.046875 218.511719 256.800781 218.511719 Z M 256.800781 218.511719 " fill-opacity="1" fill-rule="nonzero"/></g><path fill="#101929" d="M 132.1875 165.800781 C 133.191406 165.800781 133.191406 164.238281 132.1875 164.238281 C 131.179688 164.238281 131.179688 165.800781 132.1875 165.800781 Z M 132.1875 165.800781 " fill-opacity="1" fill-rule="nonzero"/><path fill="#101929" d="M 147.960938 154.621094 C 148.964844 154.621094 148.964844 153.058594 147.960938 153.058594 C 146.957031 153.058594 146.953125 154.621094 147.960938 154.621094 Z M 147.960938 154.621094 " fill-opacity="1" fill-rule="nonzero"/><path fill="#101929" d="M 242.097656 193.730469 C 243.101562 193.730469 243.101562 192.167969 242.097656 192.167969 C 241.09375 192.167969 241.089844 193.730469 242.097656 193.730469 Z M 242.097656 193.730469 " fill-opacity="1" fill-rule="nonzero"/><path fill="#101929" d="M 233.253906 182.671875 C 234.257812 182.671875 234.257812 181.109375 233.253906 181.109375 C 232.25 181.109375 232.246094 182.671875 233.253906 182.671875 Z M 233.253906 182.671875 " fill-opacity="1" fill-rule="nonzero"/><path fill="#101929" d="M 245.683594 179.003906 C 246.6875 179.003906 246.6875 177.441406 245.683594 177.441406 C 244.679688 177.441406 244.675781 179.003906 245.683594 179.003906 Z M 245.683594 179.003906 " fill-opacity="1" fill-rule="nonzero"/><path fill="#101929" d="M 224.492188 149.023438 C 225.496094 149.023438 225.496094 147.460938 224.492188 147.460938 C 223.488281 147.460938 223.488281 149.023438 224.492188 149.023438 Z M 224.492188 149.023438 " fill-opacity="1" fill-rule="nonzero"/><path fill="#101929" d="M 165.222656 133.078125 C 166.230469 133.078125 166.230469 131.515625 165.222656 131.515625 C 164.21875 131.515625 164.21875 133.078125 165.222656 133.078125 Z M 165.222656 133.078125 " fill-opacity="1" fill-rule="nonzero"/><path fill="#101929" d="M 125.230469 174.714844 C 126.238281 174.714844 126.238281 173.152344 125.230469 173.152344 C 124.226562 173.152344 124.226562 174.714844 125.230469 174.714844 Z M 125.230469 174.714844 " fill-opacity="1" fill-rule="nonzero"/><path fill="#101929" d="M 143.375 179.320312 C 144.382812 179.320312 144.382812 177.757812 143.375 177.757812 C 142.371094 177.757812 142.367188 179.320312 143.375 179.320312 Z M 143.375 179.320312 " fill-opacity="1" fill-rule="nonzero"/><path stroke-linecap="round" transform="matrix(0.75, 0, 0, 0.75, 86.375982, 212.512486)" fill="none" stroke-linejoin="miter" d="M 1.498691 1.498977 L 268.165375 1.498977 " stroke="#101929" stroke-width="3" stroke-opacity="1" stroke-miterlimit="4"/><g clip-path="url(#f5b6e7fcd4)"><path fill="#8daf9e" d="M 187.5 124.699219 C 185.179688 126.320312 182.351562 127.269531 179.304688 127.269531 C 171.378906 127.269531 164.957031 120.84375 164.957031 112.917969 C 164.957031 108.066406 167.363281 103.773438 171.050781 101.175781 C 161.980469 101.550781 154.738281 109.023438 154.738281 118.1875 C 154.738281 127.589844 162.363281 135.214844 171.765625 135.214844 C 178.863281 135.214844 184.945312 130.871094 187.5 124.699219 Z M 187.5 124.699219 " fill-opacity="1" fill-rule="evenodd"/></g><g fill="#101929" fill-opacity="1"><g transform="translate(97.602544, 242.237415)"><g><path d="M 9.75 0 C 9.570312 0 9.460938 -0.0859375 9.421875 -0.265625 L 8.78125 -3.59375 C 8.78125 -3.632812 8.765625 -3.664062 8.734375 -3.6875 C 8.710938 -3.707031 8.679688 -3.71875 8.640625 -3.71875 L 3.921875 -3.71875 C 3.878906 -3.71875 3.84375 -3.707031 3.8125 -3.6875 C 3.78125 -3.664062 3.765625 -3.632812 3.765625 -3.59375 L 3.15625 -0.265625 C 3.132812 -0.0859375 3.03125 0 2.84375 0 L 0.640625 0 C 0.546875 0 0.472656 -0.0234375 0.421875 -0.078125 C 0.367188 -0.140625 0.351562 -0.21875 0.375 -0.3125 L 4.703125 -20.03125 C 4.734375 -20.207031 4.835938 -20.296875 5.015625 -20.296875 L 7.59375 -20.296875 C 7.789062 -20.296875 7.898438 -20.207031 7.921875 -20.03125 L 12.265625 -0.3125 L 12.265625 -0.265625 C 12.265625 -0.0859375 12.175781 0 12 0 Z M 4.265625 -6.03125 C 4.265625 -5.957031 4.289062 -5.921875 4.34375 -5.921875 L 8.203125 -5.921875 C 8.265625 -5.921875 8.296875 -5.957031 8.296875 -6.03125 L 6.328125 -16.328125 C 6.304688 -16.367188 6.285156 -16.390625 6.265625 -16.390625 C 6.242188 -16.390625 6.222656 -16.367188 6.203125 -16.328125 Z M 4.265625 -6.03125 "/></g></g></g><g fill="#101929" fill-opacity="1"><g transform="translate(110.243137, 242.237415)"><g><path d="M 6.90625 0.234375 C 5.320312 0.234375 4.050781 -0.289062 3.09375 -1.34375 C 2.132812 -2.394531 1.65625 -3.785156 1.65625 -5.515625 L 1.65625 -20.015625 C 1.65625 -20.203125 1.75 -20.296875 1.9375 -20.296875 L 4.140625 -20.296875 C 4.335938 -20.296875 4.4375 -20.203125 4.4375 -20.015625 L 4.4375 -5.21875 C 4.4375 -4.3125 4.660156 -3.578125 5.109375 -3.015625 C 5.566406 -2.453125 6.164062 -2.171875 6.90625 -2.171875 C 7.65625 -2.171875 8.253906 -2.453125 8.703125 -3.015625 C 9.160156 -3.578125 9.390625 -4.3125 9.390625 -5.21875 L 9.390625 -20.015625 C 9.390625 -20.203125 9.488281 -20.296875 9.6875 -20.296875 L 11.890625 -20.296875 C 12.085938 -20.296875 12.1875 -20.203125 12.1875 -20.015625 L 12.1875 -5.515625 C 12.1875 -3.785156 11.703125 -2.394531 10.734375 -1.34375 C 9.765625 -0.289062 8.488281 0.234375 6.90625 0.234375 Z M 6.90625 0.234375 "/></g></g></g><g fill="#101929" fill-opacity="1"><g transform="translate(124.072406, 242.237415)"><g><path d="M 9.859375 0 C 9.679688 0 9.566406 -0.078125 9.515625 -0.234375 L 6.84375 -8.875 C 6.820312 -8.9375 6.785156 -8.96875 6.734375 -8.96875 L 4.703125 -8.96875 C 4.617188 -8.96875 4.578125 -8.925781 4.578125 -8.84375 L 4.578125 -0.296875 C 4.578125 -0.0976562 4.484375 0 4.296875 0 L 2.09375 0 C 1.894531 0 1.796875 -0.0976562 1.796875 -0.296875 L 1.796875 -20.015625 C 1.796875 -20.203125 1.894531 -20.296875 2.09375 -20.296875 L 7.28125 -20.296875 C 8.269531 -20.296875 9.140625 -20.050781 9.890625 -19.5625 C 10.640625 -19.082031 11.222656 -18.40625 11.640625 -17.53125 C 12.054688 -16.65625 12.265625 -15.65625 12.265625 -14.53125 C 12.265625 -13.3125 12.015625 -12.25 11.515625 -11.34375 C 11.015625 -10.445312 10.328125 -9.796875 9.453125 -9.390625 C 9.390625 -9.335938 9.367188 -9.28125 9.390625 -9.21875 L 12.359375 -0.3125 L 12.390625 -0.203125 C 12.390625 -0.0664062 12.300781 0 12.125 0 Z M 4.703125 -17.890625 C 4.617188 -17.890625 4.578125 -17.851562 4.578125 -17.78125 L 4.578125 -11.28125 C 4.578125 -11.207031 4.617188 -11.171875 4.703125 -11.171875 L 6.84375 -11.171875 C 7.632812 -11.171875 8.269531 -11.472656 8.75 -12.078125 C 9.238281 -12.679688 9.484375 -13.488281 9.484375 -14.5 C 9.484375 -15.539062 9.238281 -16.363281 8.75 -16.96875 C 8.269531 -17.582031 7.632812 -17.890625 6.84375 -17.890625 Z M 4.703125 -17.890625 "/></g></g></g><g fill="#101929" fill-opacity="1"><g transform="translate(137.205862, 242.237415)"><g><path d="M 6.671875 0.234375 C 5.085938 0.234375 3.8125 -0.25 2.84375 -1.21875 C 1.875 -2.1875 1.390625 -3.472656 1.390625 -5.078125 L 1.390625 -15.203125 C 1.390625 -16.804688 1.875 -18.09375 2.84375 -19.0625 C 3.8125 -20.039062 5.085938 -20.53125 6.671875 -20.53125 C 8.273438 -20.53125 9.5625 -20.039062 10.53125 -19.0625 C 11.507812 -18.09375 12 -16.804688 12 -15.203125 L 12 -5.078125 C 12 -3.472656 11.507812 -2.1875 10.53125 -1.21875 C 9.5625 -0.25 8.273438 0.234375 6.671875 0.234375 Z M 6.671875 -2.171875 C 7.441406 -2.171875 8.054688 -2.425781 8.515625 -2.9375 C 8.984375 -3.457031 9.21875 -4.128906 9.21875 -4.953125 L 9.21875 -15.34375 C 9.21875 -16.175781 8.984375 -16.847656 8.515625 -17.359375 C 8.054688 -17.867188 7.441406 -18.125 6.671875 -18.125 C 5.910156 -18.125 5.300781 -17.867188 4.84375 -17.359375 C 4.394531 -16.847656 4.171875 -16.175781 4.171875 -15.34375 L 4.171875 -4.953125 C 4.171875 -4.128906 4.394531 -3.457031 4.84375 -2.9375 C 5.300781 -2.425781 5.910156 -2.171875 6.671875 -2.171875 Z M 6.671875 -2.171875 "/></g></g></g><g fill="#101929" fill-opacity="1"><g transform="translate(150.600244, 242.237415)"><g><path d="M 9.859375 0 C 9.679688 0 9.566406 -0.078125 9.515625 -0.234375 L 6.84375 -8.875 C 6.820312 -8.9375 6.785156 -8.96875 6.734375 -8.96875 L 4.703125 -8.96875 C 4.617188 -8.96875 4.578125 -8.925781 4.578125 -8.84375 L 4.578125 -0.296875 C 4.578125 -0.0976562 4.484375 0 4.296875 0 L 2.09375 0 C 1.894531 0 1.796875 -0.0976562 1.796875 -0.296875 L 1.796875 -20.015625 C 1.796875 -20.203125 1.894531 -20.296875 2.09375 -20.296875 L 7.28125 -20.296875 C 8.269531 -20.296875 9.140625 -20.050781 9.890625 -19.5625 C 10.640625 -19.082031 11.222656 -18.40625 11.640625 -17.53125 C 12.054688 -16.65625 12.265625 -15.65625 12.265625 -14.53125 C 12.265625 -13.3125 12.015625 -12.25 11.515625 -11.34375 C 11.015625 -10.445312 10.328125 -9.796875 9.453125 -9.390625 C 9.390625 -9.335938 9.367188 -9.28125 9.390625 -9.21875 L 12.359375 -0.3125 L 12.390625 -0.203125 C 12.390625 -0.0664062 12.300781 0 12.125 0 Z M 4.703125 -17.890625 C 4.617188 -17.890625 4.578125 -17.851562 4.578125 -17.78125 L 4.578125 -11.28125 C 4.578125 -11.207031 4.617188 -11.171875 4.703125 -11.171875 L 6.84375 -11.171875 C 7.632812 -11.171875 8.269531 -11.472656 8.75 -12.078125 C 9.238281 -12.679688 9.484375 -13.488281 9.484375 -14.5 C 9.484375 -15.539062 9.238281 -16.363281 8.75 -16.96875 C 8.269531 -17.582031 7.632812 -17.890625 6.84375 -17.890625 Z M 4.703125 -17.890625 "/></g></g></g><g fill="#101929" fill-opacity="1"><g transform="translate(163.7337, 242.237415)"><g><path d="M 9.75 0 C 9.570312 0 9.460938 -0.0859375 9.421875 -0.265625 L 8.78125 -3.59375 C 8.78125 -3.632812 8.765625 -3.664062 8.734375 -3.6875 C 8.710938 -3.707031 8.679688 -3.71875 8.640625 -3.71875 L 3.921875 -3.71875 C 3.878906 -3.71875 3.84375 -3.707031 3.8125 -3.6875 C 3.78125 -3.664062 3.765625 -3.632812 3.765625 -3.59375 L 3.15625 -0.265625 C 3.132812 -0.0859375 3.03125 0 2.84375 0 L 0.640625 0 C 0.546875 0 0.472656 -0.0234375 0.421875 -0.078125 C 0.367188 -0.140625 0.351562 -0.21875 0.375 -0.3125 L 4.703125 -20.03125 C 4.734375 -20.207031 4.835938 -20.296875 5.015625 -20.296875 L 7.59375 -20.296875 C 7.789062 -20.296875 7.898438 -20.207031 7.921875 -20.03125 L 12.265625 -0.3125 L 12.265625 -0.265625 C 12.265625 -0.0859375 12.175781 0 12 0 Z M 4.265625 -6.03125 C 4.265625 -5.957031 4.289062 -5.921875 4.34375 -5.921875 L 8.203125 -5.921875 C 8.265625 -5.921875 8.296875 -5.957031 8.296875 -6.03125 L 6.328125 -16.328125 C 6.304688 -16.367188 6.285156 -16.390625 6.265625 -16.390625 C 6.242188 -16.390625 6.222656 -16.367188 6.203125 -16.328125 Z M 4.265625 -6.03125 "/></g></g></g><g fill="#101929" fill-opacity="1"><g transform="translate(176.374294, 242.237415)"><g/></g></g><g fill="#101929" fill-opacity="1"><g transform="translate(182.172729, 242.237415)"><g><path d="M 9.859375 0 C 9.679688 0 9.566406 -0.078125 9.515625 -0.234375 L 6.84375 -8.875 C 6.820312 -8.9375 6.785156 -8.96875 6.734375 -8.96875 L 4.703125 -8.96875 C 4.617188 -8.96875 4.578125 -8.925781 4.578125 -8.84375 L 4.578125 -0.296875 C 4.578125 -0.0976562 4.484375 0 4.296875 0 L 2.09375 0 C 1.894531 0 1.796875 -0.0976562 1.796875 -0.296875 L 1.796875 -20.015625 C 1.796875 -20.203125 1.894531 -20.296875 2.09375 -20.296875 L 7.28125 -20.296875 C 8.269531 -20.296875 9.140625 -20.050781 9.890625 -19.5625 C 10.640625 -19.082031 11.222656 -18.40625 11.640625 -17.53125 C 12.054688 -16.65625 12.265625 -15.65625 12.265625 -14.53125 C 12.265625 -13.3125 12.015625 -12.25 11.515625 -11.34375 C 11.015625 -10.445312 10.328125 -9.796875 9.453125 -9.390625 C 9.390625 -9.335938 9.367188 -9.28125 9.390625 -9.21875 L 12.359375 -0.3125 L 12.390625 -0.203125 C 12.390625 -0.0664062 12.300781 0 12.125 0 Z M 4.703125 -17.890625 C 4.617188 -17.890625 4.578125 -17.851562 4.578125 -17.78125 L 4.578125 -11.28125 C 4.578125 -11.207031 4.617188 -11.171875 4.703125 -11.171875 L 6.84375 -11.171875 C 7.632812 -11.171875 8.269531 -11.472656 8.75 -12.078125 C 9.238281 -12.679688 9.484375 -13.488281 9.484375 -14.5 C 9.484375 -15.539062 9.238281 -16.363281 8.75 -16.96875 C 8.269531 -17.582031 7.632812 -17.890625 6.84375 -17.890625 Z M 4.703125 -17.890625 "/></g></g></g><g fill="#101929" fill-opacity="1"><g transform="translate(195.306185, 242.237415)"><g><path d="M 11.515625 -18.1875 C 11.515625 -17.988281 11.414062 -17.890625 11.21875 -17.890625 L 4.703125 -17.890625 C 4.617188 -17.890625 4.578125 -17.851562 4.578125 -17.78125 L 4.578125 -11.484375 C 4.578125 -11.410156 4.617188 -11.375 4.703125 -11.375 L 8.703125 -11.375 C 8.890625 -11.375 8.984375 -11.273438 8.984375 -11.078125 L 8.984375 -9.25 C 8.984375 -9.0625 8.890625 -8.96875 8.703125 -8.96875 L 4.703125 -8.96875 C 4.617188 -8.96875 4.578125 -8.925781 4.578125 -8.84375 L 4.578125 -2.515625 C 4.578125 -2.441406 4.617188 -2.40625 4.703125 -2.40625 L 11.21875 -2.40625 C 11.414062 -2.40625 11.515625 -2.304688 11.515625 -2.109375 L 11.515625 -0.296875 C 11.515625 -0.0976562 11.414062 0 11.21875 0 L 2.09375 0 C 1.894531 0 1.796875 -0.0976562 1.796875 -0.296875 L 1.796875 -20.015625 C 1.796875 -20.203125 1.894531 -20.296875 2.09375 -20.296875 L 11.21875 -20.296875 C 11.414062 -20.296875 11.515625 -20.203125 11.515625 -20.015625 Z M 11.515625 -18.1875 "/></g></g></g><g fill="#101929" fill-opacity="1"><g transform="translate(207.830804, 242.237415)"><g><path d="M 11.578125 -20.296875 C 11.765625 -20.296875 11.859375 -20.203125 11.859375 -20.015625 L 11.859375 -18.1875 C 11.859375 -17.988281 11.765625 -17.890625 11.578125 -17.890625 L 7.765625 -17.890625 C 7.691406 -17.890625 7.65625 -17.851562 7.65625 -17.78125 L 7.65625 -0.296875 C 7.65625 -0.0976562 7.554688 0 7.359375 0 L 5.15625 0 C 4.96875 0 4.875 -0.0976562 4.875 -0.296875 L 4.875 -17.78125 C 4.875 -17.851562 4.832031 -17.890625 4.75 -17.890625 L 1.15625 -17.890625 C 0.96875 -17.890625 0.875 -17.988281 0.875 -18.1875 L 0.875 -20.015625 C 0.875 -20.203125 0.96875 -20.296875 1.15625 -20.296875 Z M 11.578125 -20.296875 "/></g></g></g><g fill="#101929" fill-opacity="1"><g transform="translate(220.558373, 242.237415)"><g><path d="M 9.859375 0 C 9.679688 0 9.566406 -0.078125 9.515625 -0.234375 L 6.84375 -8.875 C 6.820312 -8.9375 6.785156 -8.96875 6.734375 -8.96875 L 4.703125 -8.96875 C 4.617188 -8.96875 4.578125 -8.925781 4.578125 -8.84375 L 4.578125 -0.296875 C 4.578125 -0.0976562 4.484375 0 4.296875 0 L 2.09375 0 C 1.894531 0 1.796875 -0.0976562 1.796875 -0.296875 L 1.796875 -20.015625 C 1.796875 -20.203125 1.894531 -20.296875 2.09375 -20.296875 L 7.28125 -20.296875 C 8.269531 -20.296875 9.140625 -20.050781 9.890625 -19.5625 C 10.640625 -19.082031 11.222656 -18.40625 11.640625 -17.53125 C 12.054688 -16.65625 12.265625 -15.65625 12.265625 -14.53125 C 12.265625 -13.3125 12.015625 -12.25 11.515625 -11.34375 C 11.015625 -10.445312 10.328125 -9.796875 9.453125 -9.390625 C 9.390625 -9.335938 9.367188 -9.28125 9.390625 -9.21875 L 12.359375 -0.3125 L 12.390625 -0.203125 C 12.390625 -0.0664062 12.300781 0 12.125 0 Z M 4.703125 -17.890625 C 4.617188 -17.890625 4.578125 -17.851562 4.578125 -17.78125 L 4.578125 -11.28125 C 4.578125 -11.207031 4.617188 -11.171875 4.703125 -11.171875 L 6.84375 -11.171875 C 7.632812 -11.171875 8.269531 -11.472656 8.75 -12.078125 C 9.238281 -12.679688 9.484375 -13.488281 9.484375 -14.5 C 9.484375 -15.539062 9.238281 -16.363281 8.75 -16.96875 C 8.269531 -17.582031 7.632812 -17.890625 6.84375 -17.890625 Z M 4.703125 -17.890625 "/></g></g></g><g fill="#101929" fill-opacity="1"><g transform="translate(233.691829, 242.237415)"><g><path d="M 11.515625 -18.1875 C 11.515625 -17.988281 11.414062 -17.890625 11.21875 -17.890625 L 4.703125 -17.890625 C 4.617188 -17.890625 4.578125 -17.851562 4.578125 -17.78125 L 4.578125 -11.484375 C 4.578125 -11.410156 4.617188 -11.375 4.703125 -11.375 L 8.703125 -11.375 C 8.890625 -11.375 8.984375 -11.273438 8.984375 -11.078125 L 8.984375 -9.25 C 8.984375 -9.0625 8.890625 -8.96875 8.703125 -8.96875 L 4.703125 -8.96875 C 4.617188 -8.96875 4.578125 -8.925781 4.578125 -8.84375 L 4.578125 -2.515625 C 4.578125 -2.441406 4.617188 -2.40625 4.703125 -2.40625 L 11.21875 -2.40625 C 11.414062 -2.40625 11.515625 -2.304688 11.515625 -2.109375 L 11.515625 -0.296875 C 11.515625 -0.0976562 11.414062 0 11.21875 0 L 2.09375 0 C 1.894531 0 1.796875 -0.0976562 1.796875 -0.296875 L 1.796875 -20.015625 C 1.796875 -20.203125 1.894531 -20.296875 2.09375 -20.296875 L 11.21875 -20.296875 C 11.414062 -20.296875 11.515625 -20.203125 11.515625 -20.015625 Z M 11.515625 -18.1875 "/></g></g></g><g fill="#101929" fill-opacity="1"><g transform="translate(246.216448, 242.237415)"><g><path d="M 9.75 0 C 9.570312 0 9.460938 -0.0859375 9.421875 -0.265625 L 8.78125 -3.59375 C 8.78125 -3.632812 8.765625 -3.664062 8.734375 -3.6875 C 8.710938 -3.707031 8.679688 -3.71875 8.640625 -3.71875 L 3.921875 -3.71875 C 3.878906 -3.71875 3.84375 -3.707031 3.8125 -3.6875 C 3.78125 -3.664062 3.765625 -3.632812 3.765625 -3.59375 L 3.15625 -0.265625 C 3.132812 -0.0859375 3.03125 0 2.84375 0 L 0.640625 0 C 0.546875 0 0.472656 -0.0234375 0.421875 -0.078125 C 0.367188 -0.140625 0.351562 -0.21875 0.375 -0.3125 L 4.703125 -20.03125 C 4.734375 -20.207031 4.835938 -20.296875 5.015625 -20.296875 L 7.59375 -20.296875 C 7.789062 -20.296875 7.898438 -20.207031 7.921875 -20.03125 L 12.265625 -0.3125 L 12.265625 -0.265625 C 12.265625 -0.0859375 12.175781 0 12 0 Z M 4.265625 -6.03125 C 4.265625 -5.957031 4.289062 -5.921875 4.34375 -5.921875 L 8.203125 -5.921875 C 8.265625 -5.921875 8.296875 -5.957031 8.296875 -6.03125 L 6.328125 -16.328125 C 6.304688 -16.367188 6.285156 -16.390625 6.265625 -16.390625 C 6.242188 -16.390625 6.222656 -16.367188 6.203125 -16.328125 Z M 4.265625 -6.03125 "/></g></g></g><g fill="#101929" fill-opacity="1"><g transform="translate(258.857042, 242.237415)"><g><path d="M 11.578125 -20.296875 C 11.765625 -20.296875 11.859375 -20.203125 11.859375 -20.015625 L 11.859375 -18.1875 C 11.859375 -17.988281 11.765625 -17.890625 11.578125 -17.890625 L 7.765625 -17.890625 C 7.691406 -17.890625 7.65625 -17.851562 7.65625 -17.78125 L 7.65625 -0.296875 C 7.65625 -0.0976562 7.554688 0 7.359375 0 L 5.15625 0 C 4.96875 0 4.875 -0.0976562 4.875 -0.296875 L 4.875 -17.78125 C 4.875 -17.851562 4.832031 -17.890625 4.75 -17.890625 L 1.15625 -17.890625 C 0.96875 -17.890625 0.875 -17.988281 0.875 -18.1875 L 0.875 -20.015625 C 0.875 -20.203125 0.96875 -20.296875 1.15625 -20.296875 Z M 11.578125 -20.296875 "/></g></g></g><g fill="#101929" fill-opacity="1"><g transform="translate(271.590817, 242.237415)"><g/></g></g></svg>